{"title":"Marvel's Agents of S.H.I.E.L.D S03E04 Devils You Know 1080P WEB-","uid":12613761,"size":1795066820,"categoryP":"video","categoryS":"hd___tv_shows","magnet":"?xt=urn:btih:b1b246e7d89cae6969546e7dd25f99335e21fece&amp;dn=Marvel%27s+Agents+of+S.H.I.E.L.D+S03E04+Devils+You+Know+1080P+WEB-&amp;tr=udp%3A%2F%2Ftracker.leechers-paradise.org%3A6969&amp;tr=udp%3A%2F%2Fzer0day.ch%3A1337&amp;tr=udp%3A%2F%2Fopen.demonii.com%3A1337&amp;tr=udp%3A%2F%2Ftracker.coppersurfer.tk%3A6969&amp;tr=udp%3A%2F%2Fexodus.desync.com%3A6969","seeders":0,"leechers":1,"uploader":"jmanwf","files":2,"time":1445491367,"description":"Having reluctantly agreed to share information with Rosalind and the ATCU, Coulson and the team go in search for the Inhuman who is killing off other Inhumans, and May feels that Hunter's mission to take down Ward is getting too personal.\r\n\r\n\r\nideo\r\nID : 2\r\nFormat : AVC\r\nFormat/Info : Advanced Video Codec\r\nFormat profile :   \r\nFormat settings, CABAC : Yes\r\nFormat settings, ReFrames : 4 frames\r\nCodec ID : avc1\r\nCodec ID/Info : Advanced Video Coding\r\nDuration : 42mn 59s\r\nBit rate : 5 054 Kbps\r\nWidth : 1 920 pixels\r\nHeight : 1 080 pixels\r\nDisplay aspect ratio : 16:9\r\nFrame rate mode : Constant\r\nFrame rate : 23.976 fps\r\nColor space : YUV\r\nChroma subsampling : 4:2:0\r\nBit depth : 8 bits\r\nScan type : Progressive\r\nBits/(Pixel*Frame) : 0.102\r\nStream size : 1.52 GiB (91%)\r\nLanguage : English\r\nEncoded date : UTC 2015-10-21 11:15:26\r\nTagged date : UTC 2015-10-21 11:18:51\r\nColor range : Limited\r\nColor primaries : BT.709\r\nTransfer characteristics : BT.709\r\nMatrix coefficients : BT.709\r\n\r\nAudio #1\r\nID : 1\r\nFormat : AAC\r\nFormat/Info : Advanced Audio Codec\r\nFormat profile : LC\r\nCodec ID : 40\r\nDuration : 42mn 59s\r\nBit rate mode : Variable\r\nBit rate : 125 Kbps\r\nMaximum bit rate : 201 Kbps\r\nChannel(s) : 2 channels\r\nChannel positions : Front: L R\r\nSampling rate : 48.0 KHz\r\nCompression mode : Lossy\r\nStream size : 38.3 MiB (2%)\r\nLanguage : English\r\nEncoded date : UTC 2015-10-21 11:15:25\r\nTagged date : UTC 2015-10-21 11:18:51\r\n\r\nAudio #2\r\nID : 3\r\nFormat : AC-3\r\nFormat/Info : Audio Coding 3\r\nMode extension : CM (complete main)\r\nFormat settings, Endianness : Big\r\nCodec ID : ac-3\r\nDuration : 42mn 59s\r\nBit rate mode : Constant\r\nBit rate : 384 Kbps\r\nChannel(s) : 6 channels\r\nChannel positions : Front: L C R, Side: L R, LFE\r\nSampling rate : 48.0 KHz\r\nBit depth : 16 bits\r\nCompression mode : Lossy\r\nStream size : 118 MiB (7%)\r\nLanguage : English\r\nEncoded date : UTC 2015-10-21 11:15:26\r\nTagged date : UTC 2015-10-21 11:18:51\r\n\r\nText\r\nID : 4-CC1\r\nFormat : EIA-608\r\nMuxing mode : Final Cut\r\nCodec ID : c608\r\nDuration : 42mn 14s\r\nBit rate mode : Constant\r\nStream size : 0.00 Byte (0%)\r\nLanguage : English\r\nEncoded date : UTC 2015-10-21 11:15:26\r\nTagged date : UTC 2015-10-21 11:15:36\r\n\r\n\r\n\r\n\r\nSource:  https://itunes.apple.com/us/tv-season/marvels-agents-s.h.i.e.l.d./id1030602281","torrent":{"xt":"urn:btih:b1b246e7d89cae6969546e7dd25f99335e21fece","amp;dn":"Marvel%27s+Agents+of+S.H.I.E.L.D+S03E04+Devils+You+Know+1080P+WEB-","amp;tr":["udp%3A%2F%2Ftracker.leechers-paradise.org%3A6969","udp%3A%2F%2Fzer0day.ch%3A1337","udp%3A%2F%2Fopen.demonii.com%3A1337","udp%3A%2F%2Ftracker.coppersurfer.tk%3A6969","udp%3A%2F%2Fexodus.desync.com%3A6969"],"infoHash":"b1b246e7d89cae6969546e7dd25f99335e21fece","infoHashBuffer":{"type":"Buffer","data":[177,178,70,231,216,156,174,105,105,84,110,125,210,95,153,51,94,33,254,206]},"announce":[],"urlList":[]}}